<svg xmlns="http://www.w3.org/2000/svg" xmlns:xlink="http://www.w3.org/1999/xlink" version="1.1" x="0px" y="0px" viewBox="9 5 20 20" style="enable-background:new 0 0 36 36;" xml:space="preserve"><path d="M19.09,6.8c-0.19-0.16-0.33-0.26-0.48-0.33c-0.01,0-0.02-0.01-0.03-0.01c-0.19-0.07-0.35-0.1-0.52-0.1c-0.03,0-0.06,0-0.1,0  c-0.19,0.01-0.32,0.04-0.44,0.08c-0.08,0.03-0.12,0.04-0.15,0.05c-0.19,0.09-0.34,0.19-0.46,0.3l-5.11,5.11  c-0.6,0.6-0.6,1.58,0,2.18c0.6,0.6,1.58,0.6,2.18,0l1.84-1.84c0.07-0.07,0.17-0.11,0.27-0.11c0.05,0,0.1,0.01,0.14,0.03  c0.14,0.06,0.23,0.2,0.23,0.35V28.1c0,0.85,0.69,1.54,1.54,1.54s1.54-0.69,1.54-1.54V12.51c0-0.15,0.09-0.29,0.23-0.35  c0.14-0.06,0.3-0.03,0.41,0.08l1.84,1.84c0.58,0.58,1.6,0.58,2.18,0c0.29-0.29,0.45-0.68,0.45-1.09c0-0.41-0.16-0.8-0.45-1.09  L19.09,6.8z"/></svg>